<svg width="180" height="92" viewBox="0 0 180 92" fill="none" xmlns="http://www.w3.org/2000/svg">
<path d="M18.9427 29.0958L26.7648 27.5359L30.7795 74.1341L20.7427 77.1084L18.9427 29.0958Z" fill="white"/>
<path d="M61.4654 35.6592C60.9435 35.6592 60.4216 35.6328 59.8996 35.5766C58.983 35.4774 58.3172 34.6611 58.4209 33.7523C58.5246 32.8435 59.3443 32.1891 60.2677 32.2916C68.538 33.1938 77.2901 24.3765 78.9629 22.6018C79.5484 21.9805 80.3446 21.607 81.2111 21.5509C89.6387 21.0155 95.6875 18.6261 99.187 14.4488C102.663 10.3012 102.476 5.5885 102.409 4.74246C102.078 3.80389 101.619 3.5395 101.298 3.42383C100.037 2.96446 97.8856 3.88651 96.9756 4.43842C91.6628 8.43066 84.346 10.44 74.6036 10.5755C73.6634 10.5887 72.7367 10.5689 71.8401 10.5524C69.2105 10.4962 66.728 10.4466 64.2824 11.1968C60.7461 12.2808 57.7217 14.3959 54.269 17.238C42.004 27.3343 17.347 31.0027 16.3031 31.1547C15.3898 31.2869 14.54 30.6623 14.4062 29.7601C14.2724 28.8578 14.9047 28.0184 15.818 27.8862C16.0656 27.8499 40.5888 24.2013 52.1278 14.7032C55.3797 12.0263 58.9863 9.36593 63.2921 8.04399C66.2563 7.13516 69.1302 7.19465 71.9104 7.25083C72.7769 7.26736 73.6735 7.28719 74.5567 7.27397C83.5932 7.14838 90.281 5.34725 95.005 1.76811C95.0452 1.73837 95.0853 1.70863 95.1288 1.68219C95.5437 1.4211 99.2874 -0.822878 102.449 0.3239C103.513 0.710565 104.931 1.64583 105.647 3.90634C105.674 3.99557 105.698 4.08811 105.708 4.18395C105.744 4.45164 106.531 10.8168 101.807 16.5011C97.7016 21.4385 90.8431 24.2476 81.4219 24.8491C78.9395 27.4797 70.5085 35.6592 61.4654 35.6592Z" fill="#333333"/>
<path d="M78.6885 81.8209C72.1746 81.8209 65.5436 81.4772 59.0933 79.1705C58.2268 78.8598 57.367 78.5392 56.5038 78.2154C55.0619 77.6734 53.5731 77.1149 52.101 76.6423C41.1877 73.1259 29.7524 74.1042 21.5088 79.2597C20.7293 79.7488 19.6955 79.5175 19.2004 78.7474C18.7052 77.9774 18.9394 76.9562 19.7189 76.4671C28.7956 70.7894 41.288 69.679 53.1381 73.4994C54.6838 73.9984 56.2128 74.5701 57.6915 75.1254C58.5379 75.4426 59.381 75.7599 60.2308 76.0639C67.4941 78.6615 74.9381 78.5756 82.817 78.4864C84.6269 78.4665 86.5005 78.4467 88.3673 78.4566C92.014 78.4831 95.1723 78.3244 96.8317 76.1069C98.3807 74.0347 99.1335 71.305 99.7189 68.9056C100.341 66.3576 100.622 63.7964 100.923 61.0897L101.024 60.2007C101.208 58.5648 101.318 56.9025 101.355 55.26C101.358 55.0683 101.368 54.8667 101.382 54.6618C101.398 54.3412 101.425 53.8488 101.388 53.558C100.826 53.4985 100.047 53.6869 99.371 54.0537C98.2168 54.6816 97.2097 55.8549 96.6075 57.2726C95.9518 58.816 95.6741 60.5246 95.383 62.3323C95.2258 63.3006 95.0652 64.302 94.8377 65.2968C94.202 68.0761 92.7233 71.7181 89.2639 73.2614C88.4209 73.6382 87.4306 73.268 87.0492 72.4352C86.6678 71.6024 87.0425 70.6242 87.8856 70.2474C90.2041 69.2097 91.191 66.2453 91.5758 64.5664C91.7798 63.6741 91.927 62.7653 92.0809 61.8069C92.3921 59.8868 92.7133 57.8972 93.5262 55.987C94.4296 53.8653 95.9317 52.1468 97.7618 51.1521C98.4878 50.7588 100.385 49.8929 102.375 50.3754C104.925 50.9901 104.788 53.5811 104.724 54.827C104.714 54.9989 104.707 55.1674 104.704 55.3294C104.664 57.071 104.547 58.8292 104.353 60.5609L104.256 61.4466C103.958 64.1401 103.65 66.9261 102.978 69.679C102.315 72.3922 101.449 75.5021 99.5282 78.07C96.7246 81.8209 91.8869 81.7846 88.3506 81.7615C86.5139 81.7482 84.6571 81.7681 82.8638 81.7912C81.4821 81.8077 80.0903 81.8242 78.6918 81.8242L78.6885 81.8209Z" fill="#333333"/>
<path d="M31.1978 75.3403C30.348 75.3403 29.622 74.7058 29.535 73.8532L24.8244 27.5689C24.7307 26.6601 25.4032 25.8504 26.3199 25.7579C27.2433 25.6687 28.0596 26.3296 28.1533 27.2351L32.8639 73.5194C32.9575 74.4282 32.2851 75.2379 31.3684 75.3304C31.3115 75.337 31.2546 75.3403 31.1978 75.3403Z" fill="#333333"/>
<path d="M102.011 71.2423C101.496 71.2423 100.987 71.0077 100.659 70.5649C100.114 69.8279 100.278 68.7935 101.02 68.2548C102.613 67.1047 104.333 66.1132 106.129 65.3069C108.976 64.0312 110.117 63.3107 110.796 60.7892C111.419 58.489 111.763 56.169 112.128 53.7135C112.456 51.5026 112.797 49.2189 113.356 46.9683C113.479 46.466 113.707 45.8579 113.971 45.154C114.456 43.8585 115.467 41.1584 114.998 40.3058C114.978 40.2694 114.931 40.1835 114.644 40.1174C113.479 39.853 111.144 41.1849 110.114 42.4242C109.047 43.7098 108.334 45.2961 107.578 46.9749C107.354 47.474 107.13 47.973 106.895 48.4654C106.062 50.2137 104.66 52.6262 102.098 53.3797C101.215 53.6408 100.281 53.1385 100.02 52.266C99.7558 51.3902 100.264 50.4715 101.148 50.2137C102.422 49.8402 103.312 48.2374 103.868 47.0642C104.092 46.5916 104.306 46.1157 104.523 45.6365C105.336 43.832 106.176 41.9648 107.528 40.3322C109 38.5608 112.516 36.2441 115.397 36.9018C116.852 37.2356 117.585 38.0849 117.943 38.7426C119.127 40.9106 117.959 44.027 117.109 46.3041C116.892 46.889 116.685 47.4409 116.604 47.7582C116.082 49.8601 115.768 51.9685 115.437 54.1993C115.075 56.6383 114.697 59.1632 114.028 61.6451C112.958 65.6142 110.652 66.9163 107.511 68.3242C105.922 69.0347 104.403 69.9138 102.994 70.9284C102.697 71.1432 102.352 71.2456 102.007 71.2456L102.011 71.2423Z" fill="#333333"/>
<path d="M115.547 65.9843C113.837 65.9843 112.185 65.3399 111.094 64.1535C110.472 63.4793 110.525 62.4316 111.208 61.8202C111.894 61.2055 112.951 61.2584 113.57 61.9326C114.256 62.6762 115.584 62.9009 116.735 62.4647C117.879 62.0318 118.916 61.0139 119.665 59.6027C120.422 58.1783 120.826 56.516 121.221 54.9098C121.716 52.8939 122.205 50.8779 122.686 48.8587C123.516 45.3985 124.339 41.8822 125.135 38.4088C125.259 37.8635 125.413 37.3149 125.56 36.7861C125.855 35.7352 126.129 34.7437 126.193 33.8283C126.196 33.7556 126.209 33.5077 126.132 33.4383C125.985 33.3028 125.42 33.1343 124.51 33.2499C123.469 33.3854 122.365 33.7721 121.311 34.3736C119.485 35.4146 118.133 37.0637 117.605 38.8979C117.35 39.777 116.424 40.2859 115.537 40.0348C114.647 39.7836 114.132 38.8715 114.386 37.9924C115.152 35.3353 117.066 32.9723 119.642 31.5083C121.071 30.6953 122.603 30.1632 124.072 29.9749C125.888 29.7369 127.431 30.1137 128.417 31.0291C128.983 31.5513 129.632 32.4997 129.528 34.0497C129.445 35.3022 129.11 36.5052 128.782 37.6685C128.638 38.1841 128.501 38.6732 128.394 39.1425C127.594 42.6258 126.771 46.152 125.938 49.6254C125.453 51.6513 124.965 53.6738 124.466 55.6931C124.045 57.4083 123.57 59.3515 122.623 61.1361C121.499 63.2612 119.833 64.8276 117.929 65.5514C117.153 65.8455 116.34 65.9876 115.54 65.9876L115.547 65.9843Z" fill="#333333"/>
<path d="M126.691 62.2499C124.694 62.2499 122.77 61.6451 121.335 61.1957C120.455 60.918 119.967 59.9894 120.248 59.1202C120.529 58.251 121.465 57.7685 122.349 58.0461C124.604 58.7534 126.768 59.3317 128.468 58.6278C129.338 58.2676 130.127 57.5504 130.99 56.7176C134.259 53.5813 137.441 50.2236 140.515 46.9749C140.994 46.4726 141.435 46.0033 141.676 45.5175C141.857 45.1507 141.863 44.8334 141.793 44.6913C141.659 44.417 140.974 44.1394 139.746 44.1394H139.732C135.45 44.146 130.649 46.2082 126.209 49.9427C125.507 50.5343 124.45 50.4516 123.851 49.7576C123.252 49.0636 123.336 48.0193 124.038 47.4277C127.605 44.4269 133.222 40.8445 139.726 40.8346H139.742C142.954 40.8346 144.269 42.1565 144.808 43.2636C145.343 44.3641 145.296 45.7125 144.68 46.965C144.222 47.9003 143.553 48.6042 142.961 49.2288C139.849 52.5106 136.641 55.898 133.315 59.0905C132.242 60.1216 131.161 61.0932 129.752 61.6782C128.749 62.0946 127.705 62.2532 126.684 62.2532L126.691 62.2499Z" fill="#333333"/>
<path d="M177.24 32.2056C177.089 32.2056 176.939 32.1858 176.788 32.1428C169.448 30.1071 162.365 27.0964 155.517 24.1881C154.129 23.5998 152.743 23.0083 151.352 22.4266C134.256 15.2684 116.286 9.78894 100.686 18.0742C99.8729 18.5071 98.8592 18.2064 98.4209 17.4C97.9827 16.5969 98.2871 15.5955 99.1034 15.1626C106.976 10.982 115.908 9.70962 126.407 11.2794C135.855 12.6906 144.978 16.1673 152.656 19.3829C154.052 19.9678 155.443 20.5594 156.838 21.151C163.587 24.0196 170.565 26.984 177.692 28.9603C178.582 29.2081 179.1 30.1203 178.849 30.9994C178.642 31.7297 177.969 32.2056 177.24 32.2056Z" fill="#333333"/>
<path d="M178.324 70.7863C178.093 70.7863 177.859 70.74 177.638 70.6409C171.76 68.0201 166.51 64.1898 161.435 60.4851C155.162 55.9079 149.237 51.5819 142.205 49.3114C141.328 49.0272 140.846 48.0953 141.134 47.2261C141.422 46.3602 142.365 45.8843 143.245 46.1685C150.793 48.6042 157.213 53.2905 163.422 57.8247C168.357 61.427 173.459 65.1515 179.013 67.6268C179.856 68.0036 180.231 68.9818 179.849 69.8113C179.572 70.4227 178.959 70.783 178.324 70.783V70.7863Z" fill="#333333"/>
<path d="M52.6598 55.5411C51.3015 55.5411 49.9432 55.2932 48.6886 54.8041C46.6411 54.0043 44.7675 52.1602 45.1924 49.8435C45.4634 48.3663 46.611 47.4046 47.2968 46.8295L64.1988 32.6683C64.9047 32.0767 65.9586 32.1627 66.5574 32.86C67.1563 33.5573 67.0693 34.5983 66.3634 35.1899L49.4614 49.3511C49.1402 49.6221 48.5414 50.1211 48.4845 50.4351C48.4276 50.7524 49.0399 51.3869 49.9198 51.7306C51.5792 52.3783 53.4929 52.4081 55.169 51.8132C56.0389 51.5059 56.9957 51.952 57.3102 52.808C57.6213 53.6672 57.1697 54.6124 56.3032 54.9231C55.1422 55.3362 53.901 55.5411 52.6631 55.5411H52.6598Z" fill="#333333"/>
<path d="M55.8481 64.7087C53.9512 64.7087 52.0743 64.4311 50.5052 64.0279C49.9733 63.8924 49.4078 63.7106 48.8826 63.3108C48.1031 62.7192 47.6614 61.8632 47.6414 60.8982C47.5811 58.0891 51.2245 54.7744 52.7969 53.4822C54.4396 52.1272 56.902 50.369 59.0733 48.8224C59.9933 48.1647 60.8565 47.55 61.5658 47.0311C63.9779 45.2597 65.8214 43.9874 67.7718 42.639C69.4413 41.4856 71.1643 40.2959 73.282 38.7624C78.2101 35.1899 83.9712 31.1712 90.4015 26.8155C91.1643 26.2999 92.2048 26.4916 92.7267 27.2451C93.2486 27.9986 93.0545 29.0264 92.2951 29.5419C85.895 33.8779 80.1606 37.88 75.2593 41.4294C73.1114 42.986 71.3717 44.189 69.6855 45.349C67.7551 46.6841 65.9284 47.9433 63.5564 49.6849C62.8371 50.2137 61.9639 50.8383 61.0271 51.5026C58.8993 53.0195 56.4905 54.738 54.9381 56.0203C52.7233 57.8479 51.0974 59.9299 50.9903 60.7231C51.0572 60.7495 51.1676 60.7826 51.3483 60.8288C54.182 61.5592 58.0964 61.731 60.4517 60.4719C61.2647 60.039 62.2784 60.3364 62.72 61.1395C63.1583 61.9426 62.8572 62.9439 62.0442 63.3802C60.2409 64.3419 58.0295 64.7087 55.8481 64.7087Z" fill="#333333"/>
<path d="M92.9241 38.6368C92.3955 38.6368 91.8736 38.389 91.549 37.9296C91.0204 37.1794 91.2078 36.1516 91.9672 35.6294C93.6635 34.4628 95.5069 33.5176 97.4473 32.817C98.3138 32.5031 99.274 32.9459 99.5919 33.8019C99.9097 34.6578 99.4614 35.6063 98.5949 35.9203C96.9254 36.5217 95.3396 37.3347 93.8809 38.3394C93.5898 38.541 93.2553 38.6368 92.9274 38.6368H92.9241Z" fill="#333333"/>
<path d="M65.2157 70.0096C64.2723 70.0096 63.3522 69.894 62.4757 69.6593C60.5118 69.1338 59.1267 68.0234 58.5747 66.5329C58.0963 65.2407 58.2937 63.7238 59.11 62.3655C59.739 61.3245 60.6021 60.5446 61.3649 59.8605L67.9558 53.9382C73.011 49.3974 78.2368 44.7012 84.2923 41.1452C85.0852 40.6792 86.1123 40.937 86.5841 41.7202C87.0558 42.5035 86.7948 43.5181 86.0019 43.984C80.2375 47.3682 75.1388 51.9487 70.2074 56.3805L63.6165 62.3027C62.9675 62.8844 62.3586 63.433 61.9839 64.0543C61.6928 64.5401 61.5891 65.0557 61.7162 65.3961C61.8768 65.829 62.5024 66.2421 63.3522 66.4668C66.1491 67.217 68.9595 66.0339 70.3847 65.2639C72.5392 64.0973 74.3961 62.4548 76.3633 60.7164L76.8517 60.2868C84.7473 53.3268 93.2652 46.9253 102.161 41.2609C102.937 40.7651 103.975 40.9866 104.473 41.7533C104.975 42.52 104.751 43.5445 103.975 44.0369C95.2258 49.6089 86.8484 55.9046 79.0799 62.7522L78.5981 63.1785C76.5774 64.9664 74.4864 66.8138 71.9973 68.1622C69.7457 69.3817 67.4138 70.0096 65.2224 70.0096H65.2157Z" fill="#333333"/>
<path d="M81.298 66.784C80.4282 66.784 79.555 66.7145 78.6918 66.5658C77.8989 66.4303 76.9889 66.2023 76.2462 65.5116C75.1388 64.4838 74.9816 62.7752 75.8982 61.7044C76.4938 61.0071 77.551 60.9212 78.2569 61.5094C78.7721 61.9391 78.9561 62.6066 78.7888 63.2081C78.8959 63.2379 79.0465 63.2742 79.2572 63.3106C84.366 64.1731 89.8427 61.7375 92.5761 57.3883C93.0645 56.6117 94.095 56.3737 94.8778 56.8562C95.6641 57.3387 95.9049 58.3566 95.4165 59.13C92.4456 63.8592 86.8952 66.784 81.298 66.784Z" fill="#333333"/>
<path d="M1.24791 29.5254L18.461 25.0672C19.4747 24.8061 20.4784 25.5133 20.5554 26.5444L24.3493 78.0668C24.3961 78.6947 24.0749 79.2929 23.5263 79.6135L2.51924 91.7753C1.40515 92.4197 0 91.6266 0 90.3509V31.1249C0 30.3748 0.511877 29.7171 1.24791 29.5254Z" fill="#333333"/>
<path d="M86.3031 39.701C86.1224 40.2992 86.1157 40.9866 86.4503 41.5153C86.6912 41.8987 87.0826 42.1631 87.4606 42.4143C88.4075 43.0455 89.3543 43.6767 90.2977 44.3046C91.3482 45.0052 92.4021 45.7059 93.5329 46.2677C94.0615 46.5288 94.6135 46.7634 95.199 46.8328C95.7845 46.9022 96.4135 46.7965 96.8752 46.4362C97.4406 45.9934 97.6748 45.2498 97.7316 44.5393C97.8621 42.8538 97.106 41.1221 95.7711 40.0612C94.1686 38.7856 92.0608 38.5807 90.2275 37.7809C89.3308 37.3876 88.8691 37.1067 87.9357 37.6553C87.1662 38.1114 86.5573 38.845 86.2997 39.6977L86.3031 39.701Z" fill="#FFD664"/>
<path d="M95.363 49.2123C94.443 49.2123 93.4794 48.938 92.5828 48.3993C91.6059 47.8111 90.8531 47.0146 90.1907 46.314C90.0803 46.1983 89.9699 46.0793 89.8595 45.967C88.8725 44.9392 87.4306 43.7693 86.176 44.0303C85.276 44.2187 84.3961 43.6569 84.1954 42.7712C83.6868 40.5041 84.6771 37.999 86.6076 36.6738C88.2369 35.5567 90.1639 35.2626 92.1813 35.8277C94.9682 36.6077 97.7685 39.0764 98.9863 41.8326C99.5283 43.0554 99.7357 44.222 99.6019 45.3027C99.4179 46.813 98.5647 48.1019 97.3135 48.7496C96.7146 49.0603 96.0488 49.2123 95.3596 49.2123H95.363ZM87.5242 40.7718C89.0933 41.056 90.6892 42.0309 92.2817 43.6899C92.3988 43.8122 92.5159 43.9378 92.633 44.0601C93.1984 44.6583 93.7337 45.2267 94.3192 45.577C94.8411 45.891 95.4333 45.9901 95.7578 45.8216C96.0154 45.6894 96.2295 45.3126 96.2797 44.9061C96.3399 44.417 96.2195 43.8254 95.9184 43.1513C95.2225 41.5748 93.3556 39.5886 91.268 39.0037C90.2141 38.7095 89.3141 38.8351 88.5146 39.3837C88.0395 39.7076 87.6915 40.2133 87.5209 40.7685L87.5242 40.7718Z" fill="#333333"/>
</svg>
