<svg width="66" height="21" viewBox="0 0 66 21" fill="none" xmlns="http://www.w3.org/2000/svg">
<path d="M27.3898 5.9922C26.7268 6.21431 26.2994 6.91092 26.1076 7.61426C25.8754 8.45557 25.9023 9.37092 26.1816 10.1954C26.5989 11.4338 27.5345 12.3896 28.4397 13.2948C29.4156 14.2741 30.3949 15.25 31.3709 16.2293C31.4886 16.3471 31.6232 16.475 31.7881 16.475C32.0574 16.4783 32.2155 16.1586 32.3064 15.8928C32.9391 14.0486 33.5717 12.2045 34.201 10.3637C34.477 9.55601 34.7597 8.72479 34.7361 7.86665C34.7126 7.00851 34.3155 6.10662 33.5684 5.76C32.8482 5.42684 31.9699 5.70279 31.3944 6.26815C30.7988 6.85371 30.6776 8.15943 29.8329 7.37869C29.0892 6.69218 28.6315 5.57491 27.3864 5.98884L27.3898 5.9922Z" fill="#9A002C"/>
<path d="M9.90384 14.7385C9.77596 14.7823 9.675 14.7957 9.5976 14.7823C9.5202 14.7688 9.4327 14.7318 9.33174 14.678C8.64187 14.3549 7.88805 14.2068 7.07029 14.2337C6.25254 14.2607 5.44151 14.3549 4.63722 14.5097C4.55308 14.5534 4.38146 14.614 4.11897 14.7015C3.85648 14.7856 3.55024 14.8731 3.20025 14.9674C2.8469 15.0582 2.47672 15.1457 2.08972 15.2332C1.70271 15.3173 1.33254 15.3746 0.979184 15.4015C0.908514 15.4015 0.824382 15.4048 0.72679 15.4116C0.629198 15.4183 0.524875 15.4149 0.420552 15.4015C0.316229 15.388 0.222002 15.3678 0.144601 15.3375C0.0672004 15.3106 0.0200868 15.2601 0.00662582 15.1895C-0.0202962 15.0481 0.00662582 14.9371 0.0907572 14.8496C0.174889 14.7654 0.289307 14.6948 0.427283 14.6376C0.568623 14.5804 0.709964 14.5433 0.851304 14.5198C0.992645 14.4996 1.1037 14.4794 1.18783 14.4659C1.59503 14.3953 2.01568 14.3313 2.44643 14.2741C2.87719 14.2169 3.28775 14.0823 3.68148 13.8737C4.92326 13.1131 5.87563 12.1742 6.54531 11.0603C7.215 9.94641 7.61883 8.79885 7.76017 7.61428C7.76017 7.38881 7.83421 7.22391 7.98228 7.11623C8.13035 7.0119 8.28852 6.95806 8.45678 6.95806C8.58466 6.95806 8.67552 6.99171 8.73273 7.06238C8.78994 7.13305 8.82359 7.21718 8.83705 7.31478C8.85051 7.41237 8.85051 7.53352 8.83705 7.67486C8.73946 8.70463 8.43322 9.69401 7.91834 10.6464C7.40345 11.5987 6.61262 12.5814 5.5391 13.5943C5.91938 13.5506 6.30302 13.5169 6.69002 13.49C7.07702 13.4631 7.4573 13.4631 7.83084 13.49C8.20438 13.5169 8.55774 13.5809 8.88753 13.6818C9.21733 13.7794 9.51683 13.9342 9.78605 14.1462C9.85672 14.2035 9.92066 14.301 9.97787 14.4424C10.0351 14.5837 10.0048 14.6813 9.89374 14.7385H9.90384ZM2.65508 13.2578C2.54066 13.315 2.40942 13.3049 2.25462 13.2275C2.09981 13.1501 1.97866 13.0626 1.89453 12.9617C1.66906 12.6958 1.49743 12.3929 1.37628 12.0632C1.25514 11.7334 1.16764 11.3935 1.11043 11.0468C1.05322 10.7002 1.02966 10.357 1.03639 10.0103C1.04312 9.66372 1.05995 9.33056 1.09024 9.0075C1.1037 8.86616 1.16427 8.70463 1.2686 8.51954C1.37292 8.33781 1.55464 8.24359 1.80704 8.24359C1.93492 8.24359 2.03251 8.31426 2.10318 8.4556C2.17385 8.59694 2.19404 8.77193 2.16712 8.98394C2.12674 9.61661 2.11327 10.2089 2.13683 10.7608C2.16039 11.3127 2.28827 11.9016 2.5272 12.5377C2.54066 12.6352 2.6046 12.7699 2.71902 12.9381C2.81661 13.1064 2.79642 13.2141 2.65508 13.2544V13.2578ZM6.86165 5.58504C6.86165 5.89464 6.79098 6.24799 6.64964 6.64173C6.5083 7.03546 6.31311 7.41237 6.06745 7.77245C5.82178 8.13253 5.52901 8.43541 5.18912 8.68107C4.85259 8.92673 4.47568 9.05125 4.06849 9.05125C3.66129 9.05125 3.37861 8.91664 3.18006 8.65078C2.98151 8.38493 2.88392 8.09552 2.88392 7.78255C2.88392 7.34506 2.96468 6.87729 3.12622 6.37587C3.28775 5.87445 3.48966 5.39658 3.7286 4.93891C3.96753 4.48123 4.23338 4.06394 4.5228 3.6904C4.81221 3.31685 5.0747 3.03754 5.317 2.85581C5.41459 2.78514 5.54583 2.72794 5.70737 2.68755C5.8689 2.6438 6.02033 2.66063 6.16167 2.7313C6.27273 2.78851 6.29629 2.89283 6.22562 3.04763C6.15494 3.20244 6.091 3.31012 6.0338 3.36397C5.9362 3.46156 5.83525 3.57261 5.73765 3.6904C5.64006 3.81155 5.53237 3.93943 5.42132 4.08077C5.87226 4.17836 6.22562 4.35335 6.47801 4.59902C6.7304 4.84468 6.85828 5.17447 6.85828 5.58167L6.86165 5.58504ZM6.56551 17.9322C6.56551 18.6523 6.36359 19.2278 5.96312 19.6653C5.56266 20.1027 5.02085 20.3215 4.34444 20.3215C4.0483 20.3215 3.82282 20.2239 3.66802 20.0253C3.51322 19.8268 3.43582 19.5609 3.43582 19.221C3.43582 18.6994 3.51995 18.1913 3.68821 17.7C3.85648 17.2053 4.07522 16.7005 4.34444 16.1789C4.44203 16.0106 4.57328 15.8356 4.73481 15.6606C4.89634 15.4856 5.06797 15.3948 5.25306 15.3948C5.38094 15.3948 5.45834 15.4284 5.48526 15.4991C5.51218 15.5697 5.51891 15.6505 5.50545 15.7414C5.49199 15.8322 5.46507 15.9298 5.42132 16.0274C5.37757 16.125 5.35065 16.1957 5.33719 16.2394C5.32373 16.2664 5.31027 16.3 5.29344 16.3337C5.27998 16.3673 5.26652 16.401 5.24969 16.4279C5.64343 16.4851 5.95976 16.65 6.20206 16.9259C6.44099 17.2019 6.56214 17.5351 6.56214 17.9288L6.56551 17.9322ZM5.82515 5.64561C5.82515 5.39322 5.76458 5.1913 5.64679 5.04323C5.52564 4.89516 5.30354 4.77737 4.98047 4.69324C4.71125 5.13073 4.47905 5.59177 4.28386 6.07973C4.08531 6.56432 3.98099 7.02873 3.96753 7.46621C3.95407 7.64794 3.97426 7.81956 4.03147 7.97437C4.08868 8.12917 4.193 8.20657 4.3478 8.20657C4.52953 8.20657 4.71125 8.11571 4.88624 7.93062C5.06124 7.74889 5.22277 7.52679 5.36074 7.2643C5.50209 7.00517 5.61314 6.72586 5.69727 6.42971C5.7814 6.13357 5.82515 5.87445 5.82515 5.64898V5.64561ZM5.72083 18.0802C5.72083 17.6865 5.64006 17.4274 5.47853 17.3096C5.317 17.1884 5.13527 17.1245 4.94009 17.1077C4.79875 17.4476 4.66077 17.811 4.52953 18.2081C4.39492 18.6018 4.3579 18.9687 4.41174 19.3085C4.4252 19.4364 4.51607 19.5004 4.68769 19.5004C4.82903 19.5004 4.96364 19.4532 5.08816 19.3624C5.21604 19.2715 5.32709 19.1537 5.42805 19.0124C5.52564 18.8711 5.59968 18.7163 5.65016 18.548C5.70064 18.3797 5.72419 18.2249 5.72419 18.0836L5.72083 18.0802Z" fill="black"/>
<path d="M19.6094 6.78967C19.6094 6.8738 19.5858 6.94784 19.5354 7.01178C19.4849 7.07572 19.4243 7.12619 19.357 7.15985C19.2863 7.1935 19.2123 7.22379 19.1349 7.24398C19.0575 7.26417 18.9969 7.27427 18.9565 7.27427C18.546 7.30119 18.0614 7.36513 17.4994 7.46609C16.934 7.56368 16.3518 7.68819 15.7461 7.83626C15.1403 7.98433 14.5413 8.14587 13.949 8.32422C13.3568 8.49922 12.8419 8.68094 12.4044 8.86267C12.2933 8.90641 12.1655 8.94007 12.0241 8.96699C11.8828 8.99391 11.7482 9.00737 11.6237 8.99728C11.4958 8.99055 11.3915 8.96362 11.3073 8.91314C11.2232 8.86267 11.1794 8.7819 11.1794 8.67085C11.1794 8.51604 11.2636 8.3848 11.4318 8.28048C11.6001 8.17615 11.7347 8.10885 11.8323 8.07856C12.4246 7.85309 13.0135 7.66464 13.5991 7.50647C14.1846 7.35167 14.8139 7.2036 15.4903 7.06225C15.7427 7.00505 16.0523 6.94447 16.409 6.8839C16.7691 6.81996 17.1191 6.76611 17.4657 6.72573C17.8124 6.68198 18.1287 6.64833 18.4181 6.62141C18.7075 6.59448 18.9162 6.58775 19.0407 6.60122C19.4209 6.62814 19.6128 6.69208 19.6128 6.79303L19.6094 6.78967ZM20.2017 18.2046C20.2151 18.4166 20.1108 18.5277 19.8854 18.5445C19.7709 18.558 19.6666 18.5681 19.569 18.5748C19.4714 18.5815 19.3873 18.5748 19.3166 18.5647C18.9936 18.5075 18.6469 18.4806 18.2801 18.4806C17.9133 18.4806 17.5566 18.494 17.2133 18.5243C16.8667 18.5512 16.5504 18.5882 16.261 18.6286C15.9716 18.6724 15.7495 18.6993 15.5947 18.7128C15.524 18.77 15.2918 18.8676 14.898 19.0089C14.5043 19.1502 13.9894 19.2411 13.3534 19.2849C13.2827 19.2849 13.1986 19.2815 13.101 19.2748C13.0034 19.268 12.9025 19.2546 12.8049 19.231C12.7073 19.2108 12.6164 19.1772 12.539 19.1368C12.4616 19.093 12.4145 19.0459 12.401 18.9887C12.3606 18.807 12.4919 18.6656 12.8015 18.5647C12.8587 18.5512 12.9395 18.5344 13.0438 18.5108C13.1481 18.4907 13.2659 18.4637 13.3938 18.4368C13.5217 18.4099 13.6394 18.383 13.7539 18.3628C13.8649 18.3426 13.9659 18.3157 14.05 18.2887C14.4034 18.2046 14.6961 18.033 14.9283 17.7705C15.1605 17.508 15.3557 17.2119 15.5105 16.872C15.6653 16.5321 15.7932 16.1787 15.8908 15.8052C15.9884 15.4316 16.0961 15.0817 16.2071 14.7586C16.3047 14.4187 16.5235 14.2302 16.8634 14.1865C17.0182 14.1596 17.1225 14.2 17.1797 14.3144C17.2369 14.4288 17.2638 14.5533 17.2638 14.6947C17.2638 14.947 17.2335 15.1961 17.1696 15.435C17.1057 15.6739 17.0148 15.9196 16.8936 16.1754C16.7725 16.4278 16.6379 16.6936 16.4831 16.9696C16.3283 17.2455 16.1667 17.5518 15.9951 17.8883C16.3754 17.8311 16.7624 17.7907 17.1595 17.7604C17.5532 17.7335 17.9268 17.7166 18.2801 17.7166C18.6335 17.7166 18.9397 17.7301 19.1988 17.7604C19.458 17.7873 19.6464 17.8176 19.7608 17.8445C19.8584 17.858 19.956 17.9051 20.0469 17.9825C20.1377 18.0599 20.1916 18.1339 20.2051 18.2046H20.2017ZM15.7629 1.52305C15.9177 2.41147 15.9379 3.2225 15.8269 3.95613C15.7158 4.68975 15.5442 5.31569 15.3187 5.8373C15.2918 5.89451 15.2413 5.97864 15.1706 6.0897C15.1 6.20411 14.9889 6.25123 14.8341 6.23777C14.7769 6.23777 14.7399 6.21421 14.7163 6.16373C14.6961 6.11325 14.6759 6.05604 14.6625 5.98537C14.649 5.9147 14.6356 5.8373 14.6187 5.75317C14.6759 5.28877 14.7163 4.8883 14.7466 4.55851C14.7735 4.22871 14.7904 3.89892 14.7904 3.57585C14.7904 3.25279 14.7702 2.90953 14.7264 2.54945C14.6827 2.18937 14.6221 1.74852 14.5346 1.2269C14.5211 1.02835 14.5649 0.887014 14.6726 0.802883C14.7769 0.718751 14.9081 0.675003 15.0629 0.675003C15.3153 0.675003 15.4903 0.76923 15.5812 0.96105C15.6721 1.15287 15.7326 1.33796 15.7596 1.52305H15.7629ZM18.5729 11.0602C18.5729 11.3563 18.5157 11.6592 18.4046 11.9688C18.2902 12.2784 18.1287 12.5611 17.92 12.8135C17.708 13.0659 17.4556 13.2745 17.1595 13.436C16.8634 13.5976 16.5336 13.6783 16.1667 13.6783C15.9682 13.6783 15.8033 13.6447 15.6687 13.574C15.5341 13.5034 15.4264 13.4125 15.3423 13.2981C15.2581 13.187 15.1976 13.0659 15.1639 12.938C15.1269 12.8101 15.1101 12.6923 15.1101 12.5779C15.1101 12.2246 15.1572 11.8577 15.248 11.4775C15.3389 11.0972 15.4533 10.7304 15.5879 10.377C15.7225 10.0237 15.8773 9.70061 16.0523 9.40447C16.2273 9.10833 16.4023 8.86267 16.5706 8.66412C16.6985 8.52277 16.8129 8.41845 16.9206 8.34778C17.0249 8.27711 17.1158 8.26365 17.1864 8.30403C17.284 8.3747 17.3345 8.50258 17.3345 8.68431C17.3345 8.82565 17.2874 9.00064 17.1965 9.21265C17.1057 9.42466 17.0013 9.65014 16.8903 9.88907C16.9879 9.87561 17.0888 9.86888 17.1864 9.86888H17.4826C17.7652 9.88234 18.0176 10.0001 18.2431 10.2189C18.4686 10.4376 18.5796 10.7169 18.5796 11.0534L18.5729 11.0602ZM17.0316 10.4881C17.0047 10.4881 16.9509 10.4914 16.8735 10.4982C16.7961 10.5049 16.685 10.5217 16.547 10.552C16.4326 10.8044 16.3316 11.0703 16.2408 11.3462C16.1499 11.6222 16.0961 11.8981 16.0826 12.1808C16.0692 12.3491 16.0893 12.4971 16.1466 12.625C16.2038 12.7529 16.3216 12.8168 16.5066 12.8168C16.6614 12.8168 16.8061 12.7529 16.9408 12.625C17.0754 12.4971 17.1932 12.3423 17.3008 12.1606C17.4052 11.9789 17.4927 11.7871 17.5532 11.5885C17.6172 11.39 17.6475 11.2217 17.6475 11.0804C17.6475 10.6866 17.4422 10.4881 17.035 10.4881H17.0316Z" fill="black"/>
<path d="M48.2814 10.2527C48.3386 10.4782 48.2444 10.6262 48.0054 10.6969C47.7227 10.7676 47.3627 10.8551 46.9285 10.9627C46.4911 11.0671 46.0233 11.1781 45.5219 11.2892C45.0204 11.4036 44.5056 11.5146 43.9772 11.6257C43.4489 11.7401 42.9407 11.8343 42.4561 11.9117C41.9682 11.9892 41.5273 12.0497 41.1235 12.0901C40.7196 12.1305 40.3999 12.1339 40.161 12.0901C39.8379 12.0194 39.6831 11.8781 39.6966 11.6661C39.7235 11.5685 39.7673 11.4844 39.8245 11.4137C39.8682 11.343 39.9254 11.2824 40.0028 11.2353C40.0802 11.1849 40.1879 11.1613 40.3293 11.1613C40.9619 11.1478 41.5879 11.0974 42.2004 11.0132C42.8128 10.9291 43.4219 10.8281 44.0277 10.707C44.6334 10.5892 45.2358 10.4681 45.8348 10.3469C46.4338 10.2258 47.043 10.1315 47.6622 10.0609C47.79 10.0339 47.9146 10.0306 48.0424 10.0508C48.1703 10.071 48.2477 10.1383 48.2746 10.2527H48.2814ZM46.1041 6.13024C46.1041 6.43985 46.0401 6.77637 45.9122 7.13309C45.7844 7.49317 45.6094 7.82633 45.3839 8.13593C45.1584 8.44554 44.8858 8.70466 44.5695 8.90658C44.2532 9.11186 43.9032 9.21281 43.5229 9.21281C43.1998 9.21281 42.9239 9.08494 42.6984 8.83254C42.4729 8.58015 42.3585 8.29747 42.3585 7.98786C42.3585 7.60759 42.3989 7.18357 42.4763 6.71916C42.5537 6.25476 42.658 5.80045 42.7926 5.35623C42.9273 4.91202 43.0821 4.50819 43.257 4.14138C43.432 3.77456 43.6205 3.50871 43.8157 3.33708C43.8594 3.29333 43.92 3.25295 44.0075 3.2092C44.095 3.16545 44.1825 3.13517 44.2834 3.11497C44.381 3.09478 44.4652 3.09142 44.5358 3.10488C44.6065 3.11834 44.6469 3.17555 44.6637 3.27314C44.6772 3.37073 44.6637 3.46833 44.6334 3.55919C44.5998 3.65005 44.5527 3.74764 44.4955 3.84523C44.4383 3.94283 44.3911 4.04378 44.3474 4.14138C44.3036 4.23897 44.2565 4.34666 44.1993 4.45771C44.7916 4.57213 45.256 4.78414 45.5959 5.10384C45.9324 5.42017 46.1041 5.76343 46.1041 6.13024ZM44.6233 12.9146C44.5796 13.2949 44.5258 13.6045 44.4551 13.8434C44.3844 14.0823 44.3238 14.328 44.2767 14.5737C44.2262 14.8193 44.1892 15.1054 44.1589 15.4284C44.132 15.7515 44.1387 16.189 44.1791 16.7409C44.1926 16.7846 44.2094 16.8452 44.233 16.9327C44.2565 17.0202 44.2666 17.0976 44.2767 17.175C44.2835 17.2524 44.2734 17.3197 44.2464 17.3769C44.2195 17.4341 44.1556 17.4611 44.0546 17.4611C43.9133 17.4611 43.7921 17.4072 43.6945 17.3029C43.5969 17.1986 43.5195 17.074 43.4623 16.9327C43.3479 16.6803 43.2671 16.3774 43.22 16.0241C43.1695 15.6707 43.1527 15.314 43.1662 14.9472C43.1796 14.5804 43.2268 14.2203 43.3042 13.8703C43.3816 13.517 43.4892 13.2208 43.6306 12.9819C43.6878 12.8843 43.7686 12.78 43.8729 12.6757C43.9772 12.5713 44.0883 12.5175 44.1993 12.5175C44.3407 12.5175 44.4483 12.568 44.5257 12.6656C44.6031 12.7632 44.6334 12.8473 44.62 12.918L44.6233 12.9146ZM45.0877 6.19418C45.0877 6.01246 44.9935 5.81727 44.8017 5.61199C44.6099 5.40671 44.3104 5.25528 43.9032 5.15768C43.7618 5.55142 43.6407 5.96534 43.5431 6.3961C43.4455 6.82685 43.3883 7.25087 43.3748 7.67489C43.3614 7.85662 43.3849 8.01478 43.4489 8.1393C43.5128 8.26381 43.607 8.33112 43.7349 8.33112C43.9166 8.33112 44.0916 8.25372 44.2532 8.09892C44.4147 7.94411 44.5594 7.75566 44.6873 7.53692C44.8152 7.31818 44.9128 7.08597 44.9834 6.84031C45.0541 6.59465 45.0877 6.37927 45.0877 6.19418ZM50.3948 14.8597C50.3813 14.4929 50.4048 14.1328 50.4688 13.7828C50.5327 13.4295 50.5933 13.0795 50.6471 12.7261C50.351 12.7833 50.038 12.8574 49.7049 12.9482C49.3751 13.0391 49.0554 13.13 48.7525 13.2242C48.4496 13.3151 48.1703 13.4026 47.9179 13.4901C47.6655 13.5775 47.467 13.6314 47.3256 13.6583C47.255 13.6718 47.1338 13.6886 46.9656 13.7122C46.7973 13.7324 46.629 13.7424 46.4574 13.7424C46.2858 13.7424 46.1478 13.7189 46.0334 13.6684C45.919 13.6179 45.8853 13.5304 45.9291 13.4026C45.9728 13.305 46.0738 13.2208 46.2353 13.1502C46.3968 13.0795 46.5012 13.0391 46.5415 13.0223C46.7805 12.9382 47.0833 12.8406 47.4502 12.7261C47.817 12.6151 48.1972 12.4973 48.591 12.3762C48.9847 12.255 49.3717 12.144 49.7554 12.0363C50.1356 11.9319 50.4688 11.8411 50.7481 11.7704C50.8188 11.1781 50.8659 10.5455 50.8861 9.86904C50.9063 9.19262 50.9029 8.54986 50.876 7.94411C50.8625 7.56384 50.9433 7.27779 51.1183 7.08934C51.2933 6.89752 51.4582 6.80329 51.6163 6.80329C51.8418 6.80329 51.9899 6.94463 52.0606 7.22731C52.1178 7.46625 52.1447 7.69845 52.1447 7.92392C52.1447 9.58636 52.0303 11.0132 51.8082 12.2045C51.5827 13.3958 51.3505 14.3145 51.1116 14.964C51.014 15.1895 50.9467 15.3645 50.9096 15.4924C50.8726 15.6203 50.7851 15.6842 50.6438 15.6842C50.5024 15.6842 50.425 15.5731 50.4116 15.3443C50.3981 15.2333 50.3914 15.1357 50.3914 15.0583V14.8563L50.3948 14.8597ZM51.7038 18.2216C51.788 18.2081 51.8519 18.2216 51.8957 18.2653C51.9394 18.3091 51.963 18.3596 51.9697 18.4235C51.9764 18.4875 51.963 18.5548 51.9293 18.6254C51.8923 18.6961 51.8351 18.7533 51.7509 18.7937C51.5692 18.8778 51.3168 18.9552 51.0005 19.0259C50.6842 19.0966 50.3544 19.1639 50.0178 19.2278C49.6813 19.2918 49.3549 19.3389 49.0453 19.3759C48.7357 19.4095 48.5102 19.4297 48.3689 19.4297C47.8607 19.4297 47.4636 19.3523 47.1742 19.1975C46.8848 19.0427 46.7401 18.6826 46.7401 18.1206C46.7401 17.9658 46.7535 17.7942 46.7805 17.6024C46.8074 17.4106 46.8478 17.2188 46.8983 17.0202C46.9487 16.8217 47.0026 16.6298 47.0665 16.438C47.1305 16.2462 47.1978 16.0813 47.2684 15.94C47.3391 15.7852 47.4468 15.6606 47.5949 15.5698C47.7429 15.4789 47.9011 15.4385 48.0694 15.452C48.1804 15.452 48.2814 15.4991 48.3655 15.59C48.4496 15.6808 48.4496 15.7784 48.3655 15.876C48.2679 16.0577 48.1501 16.3438 48.0155 16.7308C47.8809 17.1178 47.8136 17.5519 47.8136 18.0298C47.8136 18.198 47.854 18.3259 47.9415 18.4101C48.0256 18.4942 48.1266 18.5581 48.2477 18.6019C48.3689 18.6456 48.4867 18.6658 48.6078 18.6658H48.8938C49.1059 18.6524 49.3414 18.6254 49.6006 18.5918C49.8597 18.5581 50.1222 18.5144 50.3813 18.4639C50.6404 18.4134 50.8894 18.3697 51.1216 18.3259C51.3539 18.2822 51.549 18.2485 51.7038 18.2216Z" fill="black"/>
<path d="M56.4827 8.34772C56.4423 8.4756 56.3986 8.67079 56.3548 8.94001C56.3144 9.20923 56.2774 9.50874 56.2505 9.83853C56.2236 10.1683 56.2 10.5183 56.1865 10.8851C56.1731 11.2519 56.1798 11.6053 56.2067 11.9418C56.3346 11.8711 56.4659 11.7971 56.6072 11.7197C56.7485 11.6423 56.8966 11.5615 57.0514 11.4774C57.4451 11.2654 57.8995 11.0803 58.4143 10.9154C58.9292 10.7539 59.4475 10.6294 59.9691 10.5452C59.9826 10.4342 59.9893 10.3164 59.9893 10.1952V9.84526C59.9758 9.38086 59.9422 8.90972 59.8951 8.42849C59.8446 7.95062 59.6864 7.4492 59.4206 6.92759C59.3936 6.87038 59.3734 6.79298 59.3667 6.69538C59.36 6.59779 59.3667 6.50357 59.3869 6.41943C59.4071 6.3353 59.4542 6.2579 59.5249 6.18723C59.5955 6.11656 59.6931 6.08291 59.821 6.08291C60.033 6.05599 60.2148 6.13339 60.3696 6.31511C60.6085 6.62471 60.7835 7.04537 60.8979 7.57372C61.009 8.10206 61.0662 8.84578 61.0662 9.80488C61.0662 10.5082 60.9517 11.2183 60.7296 11.9284C60.5042 12.6418 60.1777 13.2812 59.747 13.8533C59.3162 14.4254 58.7879 14.8898 58.162 15.2499C57.536 15.6099 56.8192 15.7883 56.0149 15.7883C55.7625 15.7883 55.5135 15.758 55.2746 15.6941C55.0356 15.6301 54.8203 15.5393 54.6284 15.4181C54.4366 15.297 54.2852 15.159 54.1741 14.9941C54.0597 14.8326 54.0059 14.6508 54.0059 14.4557C54.0059 14.2167 54.0866 13.9408 54.2482 13.6312C54.4097 13.3216 54.7529 12.9682 55.2746 12.5745C55.2039 11.6288 55.1803 10.7472 55.2005 9.92266C55.2207 9.09818 55.2813 8.46887 55.3789 8.03139C55.3789 7.98764 55.3957 7.9338 55.4327 7.86313C55.4664 7.79246 55.5169 7.72852 55.5808 7.67131C55.6447 7.6141 55.7188 7.57372 55.8029 7.54343C55.887 7.51651 55.9846 7.52324 56.099 7.56362C56.3111 7.66121 56.4356 7.80592 56.4692 7.99774C56.5029 8.18956 56.5096 8.30398 56.4793 8.34772H56.4827ZM56.062 15.0076C56.5702 15.0076 57.0346 14.91 57.4586 14.7114C57.8826 14.5129 58.2528 14.247 58.5691 13.9071C58.8855 13.5706 59.1547 13.1769 59.3734 12.7327C59.5922 12.2884 59.7571 11.8139 59.8715 11.3058C59.4475 11.3765 58.9965 11.4976 58.5187 11.6659C58.0408 11.8341 57.573 12.0461 57.1221 12.2985C56.4457 12.6923 55.9241 13.0692 55.5572 13.4293C55.1904 13.7893 55.0087 14.0821 55.0087 14.3076C55.0087 14.4489 55.076 14.6004 55.2106 14.7619C55.3452 14.9234 55.6313 15.0042 56.0654 15.0042L56.062 15.0076ZM65.4107 9.63998C65.4107 10.5553 65.3871 11.4168 65.3367 12.2178C65.2862 13.0221 65.1785 13.8735 65.0102 14.7754C65.0102 14.8191 65.0069 14.8965 65.0001 15.0076C64.9934 15.122 64.9766 15.2364 64.9463 15.3575C64.9194 15.4787 64.8824 15.5797 64.842 15.6638C64.8016 15.7479 64.7511 15.7782 64.6939 15.7479C64.5795 15.721 64.4785 15.6066 64.3877 15.408C64.2968 15.2095 64.2497 14.9133 64.2497 14.5196C64.2497 13.8869 64.2564 13.224 64.2699 12.5307C64.2833 11.8409 64.2901 11.0433 64.2901 10.1414C64.2901 9.54912 64.2531 8.98376 64.1858 8.43859C64.1151 7.89678 64.0108 7.30786 63.8694 6.67183C63.8425 6.51703 63.8862 6.37905 64.0074 6.2579C64.1285 6.13675 64.28 6.07954 64.4617 6.07954C64.6737 6.07954 64.8319 6.17041 64.9362 6.35549C65.0405 6.53722 65.1213 6.77952 65.1785 7.07566C65.192 7.10258 65.2088 7.20354 65.2323 7.3718C65.2525 7.54006 65.2761 7.74871 65.3064 7.99437C65.3333 8.24004 65.3602 8.50926 65.3804 8.79867C65.4006 9.08808 65.4107 9.3674 65.4107 9.63325V9.63998Z" fill="black"/>
</svg>
